<mxfile host="app.diagrams.net" modified="2023-05-26T06:39:12.213Z" agent="Mozilla/5.0 (Windows NT 10.0; Win64; x64) AppleWebKit/537.36 (KHTML, like Gecko) Chrome/113.0.0.0 Safari/537.36" version="21.3.4" etag="B_x9mcKT49aTpssNU7NC" type="github">
  <diagram name="第 1 页" id="ygbQQdq1SmDN0GDfy9oc">
    <mxGraphModel>
      <root>
        <mxCell id="0" />
        <mxCell id="1" parent="0" />
      </root>
    </mxGraphModel>
  </diagram>
</mxfile>
